<svg width="16" height="22" viewBox="0 0 16 22" fill="none" xmlns="http://www.w3.org/2000/svg">
<path fill-rule="evenodd" clip-rule="evenodd" d="M1.30844 8.95833C0.225924 8.95833 0 9.16457 0 10.1528V11.9444C0 12.9326 0.225924 13.1389 1.30844 13.1389H3.92532V20.3056C3.92532 21.2938 4.15125 21.5 5.23377 21.5H7.85065C8.93317 21.5 9.15909 21.2938 9.15909 20.3056V13.1389H12.0975C12.9185 13.1389 13.13 12.9932 13.3556 12.2726L13.9163 10.4809C14.3027 9.24646 14.0646 8.95833 12.6582 8.95833H9.15909V5.97222C9.15909 5.31255 9.7449 4.77778 10.4675 4.77778H14.1916C15.2741 4.77778 15.5 4.57154 15.5 3.58333V1.19444C15.5 0.20624 15.2741 0 14.1916 0H10.4675C6.85437 0 3.92532 2.67386 3.92532 5.97222V8.95833H1.30844Z" fill="#101828"/>
</svg>
