<svg width="20" height="20" viewBox="0 0 24 24" fill="none" xmlns="http://www.w3.org/2000/svg">
  <path d="M5.042 15.165a2.528 2.528 0 0 1-2.523 2.523 2.528 2.528 0 0 1-2.523-2.523 2.528 2.528 0 0 1 2.523-2.523h2.523v2.523Zm1.261 0a2.528 2.528 0 0 1 2.523-2.523 2.528 2.528 0 0 1 2.523 2.523v6.307a2.528 2.528 0 0 1-2.523 2.523 2.528 2.528 0 0 1-2.523-2.523V15.165Z" fill="#4A154B"/>
  <path d="M8.826 5.042a2.528 2.528 0 0 1 2.523-2.523 2.528 2.528 0 0 1 2.523 2.523v2.523H8.826a2.528 2.528 0 0 1-2.523-2.523 2.528 2.528 0 0 1 2.523-2.523Zm0 1.261a2.528 2.528 0 0 1-2.523 2.523 2.528 2.528 0 0 1-2.523-2.523V2.523A2.528 2.528 0 0 1 6.303 0 2.528 2.528 0 0 1 8.826 2.523v3.78Z" fill="#4A154B"/>
  <path d="M18.958 8.826a2.528 2.528 0 0 1 2.523 2.523 2.528 2.528 0 0 1-2.523 2.523h-2.523V8.826a2.528 2.528 0 0 1 2.523-2.523Zm-1.261 0a2.528 2.528 0 0 1-2.523-2.523 2.528 2.528 0 0 1 2.523-2.523h6.307a2.528 2.528 0 0 1 2.523 2.523 2.528 2.528 0 0 1-2.523 2.523h-6.307Z" fill="#4A154B"/>
  <path d="M15.174 18.958a2.528 2.528 0 0 1-2.523 2.523 2.528 2.528 0 0 1-2.523-2.523v-2.523h2.523a2.528 2.528 0 0 1 2.523 2.523 2.528 2.528 0 0 1-2.523 2.523Zm0-1.261a2.528 2.528 0 0 1 2.523-2.523 2.528 2.528 0 0 1 2.523 2.523v6.307a2.528 2.528 0 0 1-2.523 2.523 2.528 2.528 0 0 1-2.523-2.523v-6.307Z" fill="#4A154B"/>
</svg>
